<?xml version="1.0" standalone="no"?>
<!DOCTYPE svg PUBLIC "-//W3C//DTD SVG 20010904//EN"
 "http://www.w3.org/TR/2001/REC-SVG-20010904/DTD/svg10.dtd">
<svg version="1.0" xmlns="http://www.w3.org/2000/svg"
 width="626.000000pt" height="626.000000pt" viewBox="0 0 626.000000 626.000000"
 preserveAspectRatio="xMidYMid meet">
<metadata>
Created by potrace 1.16, written by Peter Selinger 2001-2019
</metadata>
<g transform="translate(0.000000,626.000000) scale(0.100000,-0.100000)"
fill="#000000" stroke="none">
<path d="M3650 5015 c0 -73 -1 -75 -25 -75 -23 0 -25 4 -25 43 0 73 2 72 -172
56 l-153 -14 -1 -55 -1 -55 6 50 6 50 144 14 c161 15 161 15 161 -51 0 -43 8
-41 -195 -58 -71 -6 -138 -13 -147 -16 -13 -4 -18 5 -23 51 -4 30 -11 57 -15
60 -9 6 -394 -30 -407 -38 -5 -3 -8 -30 -5 -62 4 -55 4 -57 -19 -53 -21 3 -25
10 -29 53 l-5 50 -100 -2 c-55 -2 -127 -6 -160 -11 l-60 -7 1 -57 1 -57 -54
-7 c-87 -11 -87 -10 -62 -273 11 -123 19 -225 16 -227 -3 -4 -46 3 -135 22
l-22 4 20 40 c11 21 19 52 19 67 -1 25 -2 25 -8 -7 -10 -49 -44 -110 -80 -144
-25 -24 -35 -28 -63 -22 -43 8 -107 51 -118 79 -6 16 -9 17 -9 6 -1 -24 62
-76 109 -90 22 -7 40 -15 40 -18 0 -16 -62 -41 -100 -41 -49 0 -89 25 -120 76
-20 32 -21 36 -6 53 9 9 19 32 22 50 5 21 11 30 20 27 7 -3 16 -1 19 5 4 5 3
8 -2 7 -36 -10 -83 45 -83 97 0 40 17 33 69 -30 13 -16 15 -15 26 12 7 16 24
38 37 49 13 10 27 27 31 37 3 9 13 17 22 17 18 0 19 -11 3 -29 -11 -11 -4 -13
39 -8 43 5 51 3 46 -9 -8 -22 20 -17 61 11 43 29 47 30 39 9 -3 -9 0 -20 8
-25 11 -7 11 -9 -2 -9 -9 0 -22 -6 -29 -14 -10 -13 -7 -13 17 -4 24 9 31 20
41 62 19 83 15 136 -13 178 -30 45 -101 80 -173 86 -67 6 -163 -22 -197 -56
-33 -33 -41 -98 -23 -176 13 -51 13 -62 1 -69 -21 -13 -15 -61 12 -101 47 -69
29 -101 -63 -110 -112 -11 -188 -56 -223 -131 -35 -76 -21 -295 43 -643 l32
-173 -15 -122 c-16 -140 -16 -807 0 -1012 l10 -120 -5 140 c-10 343 -12 636
-5 570 5 -38 9 -130 10 -203 1 -73 6 -214 11 -315 5 -100 9 -200 8 -222 l-1
-40 -7 35 c-7 35 -7 35 -9 -11 -1 -35 -7 -51 -27 -70 -14 -13 -62 -66 -106
-117 l-81 -92 -48 0 -48 0 -4 38 -4 37 -1 -38 -2 -37 -168 2 -167 3 -6 40 -6
40 -2 -42 -1 -43 -115 0 -115 0 0 -55 c0 -54 0 -55 30 -55 l30 0 0 -505 0
-504 -57 -4 c-32 -1 1047 -3 2397 -3 1350 1 2308 2 2128 4 l-328 2 -1 38 c-1
24 -3 29 -6 14 l-5 -23 -216 2 c-197 3 -217 1 -220 -14 -3 -14 -17 -17 -88
-17 -46 0 -84 2 -84 4 0 2 20 14 44 26 56 26 122 87 131 119 5 16 4 21 -4 17
-6 -4 -11 -13 -11 -21 0 -21 -58 -73 -115 -102 -36 -20 -66 -27 -107 -27 -32
-1 -58 -4 -58 -8 0 -5 -43 -8 -95 -8 l-95 0 0 463 c0 270 -4 468 -10 477 -5 9
-31 17 -67 20 l-58 5 -5 55 -5 55 -160 0 -160 0 -3 -57 c-3 -50 -6 -58 -22
-58 -17 0 -20 7 -20 44 0 79 8 76 -176 76 -157 0 -164 1 -164 20 0 19 -6 20
-127 18 l-128 -2 123 -3 c97 -3 122 -7 122 -18 0 -9 -13 -15 -37 -17 -33 -3
-38 -7 -41 -30 -3 -22 -9 -28 -27 -28 -18 0 -24 6 -27 27 l-3 28 -156 3 -156
2 -2 58 c-2 89 -20 219 -42 307 -51 202 -188 591 -275 784 -19 40 -50 140 -69
222 l-35 149 39 222 c22 123 42 249 46 281 5 41 11 55 19 49 6 -6 110 0 256
14 300 28 341 33 223 27 l-92 -4 -6 43 c-10 76 -75 802 -75 844 0 32 5 43 23
52 18 9 855 90 970 94 68 2 59 47 124 -662 10 -107 19 -185 21 -173 2 12 -4
96 -12 186 -10 100 -16 265 -16 421 l0 256 668 3 667 2 -672 3 -673 2 -1 -157
c-1 -164 -10 -157 -24 20 -4 45 -13 83 -21 91 -8 8 -14 33 -14 55 l0 41 738 3
737 2 -742 3 -743 2 0 -44 c0 -40 -2 -43 -25 -43 -24 0 -25 2 -25 68 l0 68 58
4 57 3 -62 2 -63 2 0 -75z m-536 -52 c11 -73 20 -68 -145 -82 -83 -7 -152 -11
-154 -9 -7 7 -9 88 -2 94 6 6 182 27 273 33 17 1 23 -6 28 -36z m-376 -55 c3
-48 3 -48 -30 -49 -18 -1 -42 -3 -53 -4 -11 -2 -63 -6 -116 -10 l-96 -8 -7 43
c-4 23 -4 45 -1 49 9 8 201 29 255 27 l45 -1 3 -47z m-72 -86 c-3 -10 5 -139
19 -287 47 -505 57 -626 52 -631 -8 -8 -326 -37 -341 -31 -9 4 -15 36 -20 101
-3 53 -9 116 -12 139 -6 42 -5 44 42 80 26 20 57 37 69 37 12 0 42 15 67 34
24 19 55 36 69 38 16 2 25 10 27 26 2 12 8 22 13 22 23 0 7 39 -22 50 l-31 13
32 13 c24 11 31 19 28 36 -2 14 -9 22 -18 20 -7 -2 -28 -6 -44 -9 l-31 -6 23
25 c36 39 22 89 -16 55 -9 -8 -37 -25 -62 -36 -35 -17 -52 -34 -79 -81 -29
-51 -76 -100 -85 -88 -10 11 -42 426 -34 440 11 23 31 27 185 43 184 18 175
18 169 -3z m-66 -291 c0 -5 -17 -24 -37 -41 l-38 -32 63 5 c77 6 80 -10 6 -35
-27 -9 -41 -17 -32 -18 22 0 88 -31 88 -41 0 -11 -31 -20 -43 -12 -7 3 -4 -3
6 -14 23 -26 22 -33 -8 -33 -14 0 -45 -16 -71 -35 -25 -19 -54 -35 -65 -35
-21 0 -66 -32 -219 -156 -52 -42 -114 -86 -138 -97 -40 -20 -44 -20 -70 -5
-15 9 -35 31 -44 49 -19 36 -24 27 -9 -14 6 -14 19 -28 30 -32 45 -14 17 -25
-65 -25 -63 0 -89 -4 -100 -15 -9 -8 -27 -15 -42 -15 -15 0 -49 -11 -76 -25
-49 -25 -96 -33 -96 -16 0 5 19 11 42 15 63 10 75 25 36 45 -17 9 -34 22 -36
29 -2 8 8 5 30 -8 20 -12 50 -20 79 -20 57 0 69 11 27 24 -40 13 -58 46 -58
109 0 59 21 102 60 122 39 20 58 19 125 -7 54 -21 57 -21 93 -4 20 10 83 35
140 57 174 65 216 92 259 165 l37 64 23 -22 c13 -12 27 -36 32 -52 7 -24 9
-26 10 -9 1 12 -11 36 -25 53 -30 35 -29 37 29 66 50 25 57 27 57 15z m-916
-1577 c0 -108 -3 -135 -20 -164 l-19 -35 -5 130 c-3 75 -8 115 -11 95 -4 -25
-6 -15 -7 36 -1 39 1 73 4 76 3 3 17 3 32 -1 l27 -8 -1 -129z m161 106 c44 -6
168 -14 275 -17 l195 -6 24 -51 c156 -335 309 -801 331 -1006 11 -112 13 -290
3 -290 -5 0 -21 14 -38 31 -16 17 -55 46 -85 64 -37 23 -72 57 -109 107 -30
40 -66 85 -80 101 -19 20 -22 30 -13 39 8 8 -1 27 -39 75 -40 51 -79 125 -79
149 0 13 38 0 69 -24 56 -44 141 -95 147 -89 3 2 -21 21 -53 41 -32 20 -71 47
-87 60 l-28 24 76 22 c61 19 76 26 71 39 -16 41 -25 124 -25 233 0 136 -13
182 -56 198 -15 6 -34 8 -41 6 -8 -3 -16 1 -19 9 -5 11 -23 15 -68 15 l-62 0
-13 53 c-7 28 -15 60 -18 70 -4 14 2 17 37 17 25 0 39 4 35 10 -3 6 -21 10
-40 10 -32 0 -34 3 -43 43 l-10 42 -1 -37 c-1 -43 -14 -47 -62 -22 -17 8 -33
14 -35 11 -8 -7 22 -27 61 -40 36 -13 40 -18 57 -78 10 -35 17 -68 15 -72 -1
-5 -29 -17 -61 -28 -32 -11 -70 -28 -84 -37 -14 -9 -42 -22 -61 -28 -27 -9
-30 -12 -14 -13 l22 -1 -20 -34 c-14 -24 -22 -64 -28 -132 l-8 -98 -48 -43
c-26 -24 -61 -47 -78 -52 -21 -6 -25 -10 -12 -10 22 -1 77 29 111 61 l22 19
-5 -44 c-4 -31 -1 -48 11 -59 14 -15 12 -19 -30 -43 -25 -15 -77 -54 -115 -87
-39 -33 -72 -58 -74 -56 -2 2 -9 141 -16 308 l-12 305 25 37 c30 44 48 133 48
241 l0 77 28 -5 c15 -3 63 -10 107 -15z m477 -387 c21 -18 24 -53 6 -53 -10 0
-10 -2 0 -9 9 -5 13 -22 11 -45 -3 -30 1 -41 20 -55 l24 -18 -22 -22 c-16 -16
-17 -21 -6 -21 12 0 15 -14 15 -64 0 -56 -3 -67 -22 -80 -26 -19 -90 -21 -139
-5 -72 23 -90 32 -85 44 2 7 -6 23 -20 36 -26 24 -46 81 -37 105 6 17 24 18
57 3 20 -10 29 -8 55 10 16 12 40 38 52 59 13 20 26 39 29 42 3 3 7 20 8 39 4
55 20 65 54 34z m-367 -412 c16 -7 14 -9 -15 -14 -18 -4 -31 -10 -28 -12 3 -3
27 -1 53 5 61 14 166 16 186 4 34 -19 88 -73 138 -137 l51 -65 -42 -34 c-24
-19 -60 -45 -81 -58 -37 -22 -42 -22 -120 -11 -45 7 -95 14 -112 17 -23 4 -27
3 -15 -5 8 -6 27 -11 43 -11 36 0 35 -17 -3 -25 -17 -4 -28 -11 -25 -16 4 -5
24 0 47 12 30 15 50 19 79 14 38 -7 39 -8 39 -50 0 -79 -56 -122 -171 -132
-64 -5 -69 -8 -69 -29 0 -20 -14 -31 -80 -64 -44 -22 -91 -40 -105 -40 -14 0
-38 -9 -54 -21 -15 -11 -57 -31 -92 -44 -35 -13 -56 -24 -47 -24 25 -1 117 37
146 59 19 15 40 20 91 20 l66 0 -50 -36 c-68 -49 -196 -110 -275 -130 -65 -17
-252 -26 -265 -12 -4 4 -2 44 4 88 9 67 15 85 35 101 13 10 43 51 67 91 116
197 380 474 524 551 33 18 50 19 80 8z m463 -359 c41 -53 84 -96 125 -124 34
-23 91 -68 125 -100 35 -33 94 -79 132 -104 60 -40 72 -45 105 -38 26 5 33 10
26 17 -16 16 -13 59 5 85 l15 22 508 0 c417 0 511 -2 520 -14 8 -9 10 -142 9
-472 l-3 -459 -500 -3 c-275 -2 -515 0 -532 3 l-33 6 0 314 c0 173 4 316 9
319 4 3 22 0 39 -6 27 -10 33 -9 58 15 16 15 37 33 48 40 15 11 17 17 7 35 -6
11 -20 23 -30 27 -33 10 -33 35 -1 53 29 16 38 36 23 45 -5 3 -35 1 -68 -4
l-60 -8 63 4 c66 3 77 -4 38 -25 -41 -21 -41 -42 -2 -73 40 -32 47 -52 14 -42
-17 6 -20 4 -15 -9 4 -11 0 -19 -11 -23 -9 -4 -22 -13 -28 -21 -10 -13 -17
-12 -57 7 -26 13 -64 42 -84 65 -30 33 -82 65 -242 147 l-204 104 -120 115
-120 115 60 37 c33 21 66 45 73 53 16 19 6 29 108 -103z m-1020 -104 c-8 -13
-21 -33 -29 -45 l-14 -23 -307 0 -308 0 0 45 0 45 336 0 336 0 -14 -22z m1600
-70 l3 -48 -155 0 -156 0 0 34 c0 68 -3 67 159 64 l146 -3 3 -47z m377 -3 l0
-50 -152 -3 -153 -2 0 55 0 56 153 -3 152 -3 0 -50z m475 0 l0 -55 -152 3
-153 2 -3 39 c-6 67 -9 66 158 66 l150 0 0 -55z m-2510 -10 c0 -3 -9 -24 -20
-46 -15 -27 -29 -41 -48 -45 -25 -5 -27 -10 -32 -67 -3 -34 -5 -116 -5 -182 0
-112 2 -123 27 -165 15 -26 50 -63 82 -85 30 -22 55 -43 56 -46 0 -4 -19 -9
-42 -12 -24 -2 -64 -17 -89 -31 l-46 -26 8 -48 c5 -26 30 -89 56 -141 27 -52
50 -98 51 -103 2 -4 -118 -8 -267 -8 l-271 0 0 505 0 505 270 0 c149 0 270 -2
270 -5z m1519 -296 l51 -53 0 -323 0 -323 -180 0 -179 0 -1 440 0 440 129 -64
c101 -50 140 -75 180 -117z m-319 -220 c0 -162 -3 -219 -12 -219 -17 0 -58
-41 -58 -58 0 -7 12 0 26 17 33 40 44 39 44 -1 0 -27 -9 -41 -49 -75 -28 -24
-51 -43 -53 -43 -2 0 -4 16 -6 36 -1 19 -9 48 -17 65 -9 16 -20 77 -25 137
l-9 107 3 -97 c2 -54 3 -98 2 -98 -1 0 -49 47 -108 104 l-107 103 89 42 c48
22 93 41 99 41 6 0 12 -21 13 -47 l1 -48 6 50 c5 45 7 38 20 -73 8 -67 18
-125 23 -128 5 -4 7 8 4 28 -38 223 -38 226 27 268 44 30 53 42 61 77 5 23 13
40 18 37 4 -3 8 -104 8 -225z m-834 -193 c28 -13 55 -29 59 -36 5 -8 14 -5 31
11 30 28 49 15 40 -29 -5 -21 -16 -32 -39 -40 l-32 -11 33 5 c18 3 32 1 32 -4
0 -6 3 -17 6 -25 8 -21 -61 -44 -81 -27 -18 15 -19 37 -2 43 6 3 2 6 -11 6
-13 1 -22 -2 -20 -6 33 -70 45 -75 97 -48 27 13 31 13 56 -6 14 -12 50 -30 78
-41 57 -22 67 -31 67 -65 l0 -23 -270 0 -270 0 0 40 c0 31 4 40 18 40 13 0 14
2 4 9 -10 6 -8 22 14 77 15 38 33 74 40 80 8 6 11 14 8 17 -3 3 2 17 11 31 22
33 62 34 131 2z"/>
<path d="M5110 4480 l0 -440 -171 0 c-156 0 -173 2 -200 20 -42 31 -110 59
-191 79 -67 17 -75 22 -95 57 -29 50 -29 92 0 146 17 34 22 60 22 119 0 67 -3
80 -27 111 -54 71 -180 103 -333 83 -51 -6 -56 -9 -52 -27 4 -14 0 -22 -14
-25 -15 -4 -17 -8 -8 -19 9 -11 8 -18 -1 -29 -10 -13 -10 -19 4 -33 9 -10 16
-25 16 -33 0 -10 2 -11 8 -2 7 10 52 30 124 53 37 12 41 7 121 -153 l25 -48
10 31 c14 38 37 48 62 25 24 -22 25 -37 5 -75 -9 -17 -11 -30 -5 -30 5 0 10
-11 10 -24 0 -35 18 -77 43 -104 l22 -24 -54 -50 c-113 -104 -169 -123 -156
-54 4 20 2 43 -6 57 -10 20 -9 25 12 38 43 27 89 78 89 98 -1 12 -5 7 -14 -13
-8 -17 -27 -41 -44 -53 -38 -27 -112 -60 -133 -61 -10 0 -29 25 -48 63 -18 34
-29 51 -26 37 4 -14 18 -45 32 -69 26 -44 38 -48 95 -26 11 4 20 -1 28 -15 23
-43 -5 -49 -227 -50 -186 0 -203 1 -204 18 -1 9 -5 -1 -8 -23 l-6 -40 -180
-16 c-707 -65 -713 -65 -650 -68 27 -1 488 40 613 54 l52 6 0 -281 0 -282
-107 8 c-167 13 -217 12 -220 -6 -10 -78 -15 -90 -33 -90 -18 0 -20 7 -20 59
l0 58 -62 6 c-35 4 -106 10 -159 13 l-96 7 -6 -33 c-4 -18 -7 -44 -7 -58 0
-24 -2 -25 -51 -19 -45 6 -54 3 -75 -18 -13 -13 -24 -32 -24 -42 0 -14 -37
-453 -72 -868 -3 -28 0 -30 32 -33 316 -25 1195 -104 1198 -107 2 -2 -1 -18
-7 -36 -6 -18 -11 -48 -11 -68 0 -45 72 -316 135 -511 54 -166 95 -250 141
-288 34 -30 64 -80 64 -110 0 -22 25 -32 84 -32 31 0 45 7 72 35 l33 36 12
-46 c6 -25 13 -44 16 -42 9 9 -20 97 -32 97 -7 0 -17 23 -23 52 -8 44 -7 58 6
83 25 45 19 156 -22 421 -20 128 -36 252 -36 275 0 32 11 64 41 119 47 85 112
178 116 164 1 -5 21 -128 43 -274 34 -220 42 -306 50 -505 7 -194 12 -250 28
-295 10 -30 22 -79 25 -108 6 -49 5 -53 -18 -62 -20 -8 -25 -16 -24 -42 1 -27
2 -29 6 -8 2 14 12 31 21 37 22 18 108 16 148 -3 29 -14 34 -21 34 -51 0 -30
-3 -34 -17 -28 -10 4 -58 9 -108 12 -90 5 -90 5 -70 -14 15 -15 21 -17 23 -6
2 8 18 13 40 13 57 0 80 -9 75 -29 -4 -14 -14 -16 -69 -13 l-64 4 0 -33 c0
-53 -37 -115 -106 -175 -42 -37 -64 -64 -63 -78 0 -21 0 -21 9 1 9 21 16 23
92 23 59 1 89 5 103 16 20 15 20 15 1 30 -11 8 -42 14 -70 14 -46 0 -49 1 -34
16 10 10 32 16 57 16 60 -1 81 -10 74 -30 -3 -9 8 -1 25 18 18 19 32 44 32 55
-1 18 -1 19 -11 2 -8 -13 -14 -15 -29 -7 -10 5 -35 10 -54 10 -20 0 -36 3 -36
8 1 19 21 36 56 43 l39 8 -38 -3 c-35 -2 -38 0 -35 23 3 29 28 37 84 26 22 -4
34 -12 34 -22 0 -31 13 -3 14 29 1 30 4 33 28 30 24 -3 27 0 30 30 5 56 23 32
29 -39 3 -46 5 -26 5 63 l-1 132 31 43 c71 99 66 58 69 638 3 463 -3 715 -20
858 l-5 42 138 4 137 3 -137 2 c-108 2 -138 5 -138 15 0 24 48 37 130 37 44 0
80 3 80 8 0 4 -38 6 -84 4 l-85 -3 -5 43 c-4 24 -11 93 -16 153 -34 364 -79
627 -135 785 -17 49 -64 125 -71 117 -3 -3 6 -22 20 -44 44 -66 68 -152 57
-198 -5 -22 -15 -67 -21 -100 -7 -33 -19 -82 -27 -109 l-15 -49 -56 6 c-31 3
-80 13 -108 21 -49 15 -51 17 -63 68 -23 93 -26 260 -6 334 10 36 15 68 12 71
-9 9 -28 -45 -34 -99 -6 -48 -23 -57 -23 -12 0 14 -4 23 -8 20 -5 -3 -5 -27
-1 -53 5 -26 15 -91 23 -143 8 -52 19 -115 24 -140 6 -25 13 -104 16 -176 l5
-131 -25 -12 c-14 -6 -31 -8 -37 -4 -24 14 -154 144 -182 183 -29 38 -45 50
-45 31 0 -13 116 -141 171 -188 l51 -43 -46 -20 c-25 -10 -74 -37 -108 -60
l-63 -41 -7 83 c-18 196 -27 248 -59 319 -25 59 -32 89 -36 169 -6 103 8 214
33 262 13 25 18 28 52 22 34 -5 44 -1 92 37 30 24 72 60 92 81 21 21 39 38 42
38 2 0 35 -10 72 -21 75 -23 138 -52 169 -78 17 -14 45 -16 198 -13 l177 3 0
444 c0 245 -2 445 -5 445 -3 0 -5 -198 -5 -440z m-906 -479 c-11 -19 -23 -27
-33 -24 -12 4 -13 2 -3 -4 10 -7 8 -22 -8 -68 -34 -100 -73 -304 -61 -319 8
-9 6 -39 -8 -109 -10 -54 -20 -100 -23 -103 -3 -3 -63 0 -133 7 -144 13 -145
13 -145 -58 0 -39 -2 -43 -26 -43 -25 0 -25 1 -19 55 6 45 4 56 -9 61 -14 5
-16 38 -16 290 l0 284 38 0 c41 1 72 19 72 44 0 14 21 16 196 16 l195 0 -17
-29z m-494 -316 l0 -285 -25 0 -25 0 0 285 0 285 25 0 25 0 0 -285z m1219
-157 c14 -86 49 -402 57 -520 l7 -97 -29 -8 c-16 -4 -90 -7 -164 -7 -156 0
-320 26 -320 51 0 9 6 13 14 10 14 -6 126 21 136 32 3 3 19 7 35 8 17 1 53 9
81 18 l52 16 30 132 c67 282 85 373 84 400 -4 48 6 29 17 -35z m-153 -87 c-4
-31 -16 -116 -28 -188 l-21 -133 -130 -51 c-72 -28 -206 -75 -297 -105 -123
-40 -176 -63 -209 -89 -24 -19 -47 -35 -50 -35 -11 0 -71 47 -86 67 -19 24
-18 43 2 65 15 17 14 18 -15 18 -52 0 -45 17 18 40 45 17 70 21 104 16 39 -6
57 -1 153 41 59 27 138 67 176 90 37 22 97 53 133 69 l66 28 -7 136 -7 136
102 -25 102 -25 -6 -55z m-1636 -5 l115 -11 0 -50 c0 -28 -4 -49 -10 -48 -5 1
-73 7 -150 13 -77 7 -141 13 -143 15 -1 1 1 23 4 48 8 55 -5 52 184 33z m380
-30 l115 -11 -2 -48 c-1 -27 -3 -50 -5 -53 -4 -4 -217 13 -275 22 -30 4 -31 6
-26 42 9 71 -4 68 193 48z m520 -45 l65 -6 3 -54 3 -54 -53 6 c-29 3 -89 9
-133 12 -123 9 -125 10 -125 49 0 19 3 42 6 51 7 17 20 17 234 -4z m-1008 -33
c142 -11 146 -12 138 -32 -4 -12 -11 -59 -14 -106 -4 -47 -13 -152 -21 -235
-8 -82 -22 -242 -31 -355 -9 -113 -20 -209 -24 -213 -7 -8 -242 6 -319 19
l-34 5 7 72 c29 320 56 639 62 725 5 68 12 108 21 118 18 17 30 17 215 2z
m528 -42 c91 -8 251 -22 355 -30 336 -28 325 -25 325 -102 l0 -45 -57 -27
c-45 -20 -72 -26 -117 -24 -108 3 -225 -59 -146 -78 l25 -6 -25 -16 c-14 -9
-37 -20 -52 -23 -33 -8 -54 -30 -38 -40 5 -3 10 -17 10 -31 0 -20 5 -24 29
-24 16 0 31 -5 33 -10 2 -6 25 -13 51 -16 53 -5 94 12 160 64 34 28 92 50 102
40 3 -2 0 -51 -5 -109 -5 -57 -17 -196 -26 -309 -9 -113 -20 -208 -23 -213 -4
-4 -81 0 -172 8 -267 24 -482 43 -689 61 -107 9 -196 18 -198 20 -3 2 15 223
58 697 12 132 23 214 32 224 14 17 52 16 368 -11z"/>
<path d="M1185 3036 c-8 -20 -14 -55 -14 -78 2 -41 2 -41 9 13 4 30 11 63 17
73 9 16 13 15 46 -16 59 -56 71 -109 40 -176 l-17 -37 -6 55 -7 55 -1 -58 c-2
-67 -11 -67 -47 1 -13 26 -24 39 -25 30 0 -9 16 -37 35 -62 34 -44 34 -47 25
-97 -6 -29 -8 -55 -5 -57 3 -3 5 2 5 12 0 15 9 16 84 10 100 -8 135 7 166 71
26 55 28 145 3 144 -11 0 -13 -3 -5 -6 16 -6 16 -85 -2 -127 -22 -52 -60 -76
-120 -76 l-51 1 45 23 c25 13 54 34 65 47 18 21 17 21 -15 -3 -45 -33 -100
-61 -107 -54 -9 8 42 88 79 123 18 17 47 39 63 47 17 9 23 16 15 16 -30 0 -89
-50 -129 -111 -23 -34 -41 -65 -41 -70 0 -5 -9 -9 -20 -9 -29 0 -26 33 10 105
43 86 38 139 -18 198 -48 51 -61 53 -77 13z"/>
<path d="M4250 1201 c0 -31 5 -53 15 -61 9 -7 15 -30 16 -54 0 -22 3 -35 6
-28 3 7 23 12 49 12 38 0 44 -3 44 -21 0 -20 -4 -21 -52 -17 l-53 4 -58 -118
c-42 -86 -57 -127 -55 -151 l3 -32 60 3 c76 4 124 27 201 97 34 30 64 52 67
48 11 -10 54 25 77 62 20 33 21 40 10 83 -6 26 -20 61 -30 77 -10 17 -27 48
-39 70 -12 22 -21 34 -21 28 0 -6 18 -45 40 -85 22 -40 40 -84 40 -97 0 -30
-197 -229 -253 -255 -24 -11 -55 -16 -90 -14 -48 3 -52 5 -52 28 0 22 4 25 33
22 43 -5 99 15 117 41 23 33 19 37 -32 37 -56 0 -76 10 -67 33 5 13 15 16 48
11 22 -3 47 -7 54 -10 16 -5 43 6 37 15 -2 4 3 26 11 50 8 23 15 65 16 92 0
38 5 52 19 60 11 5 19 14 19 20 0 5 -11 2 -25 -7 -34 -22 -100 -22 -125 1 -12
11 -20 31 -20 52 0 31 1 33 22 22 13 -7 43 -9 74 -6 51 5 53 5 57 -21 4 -24 4
-24 6 5 l1 32 -63 -6 c-50 -4 -65 -2 -76 11 -23 27 -31 18 -31 -33z"/>
</g>
</svg>
